<svg xmlns="http://www.w3.org/2000/svg" viewBox="0 0 24 24">
  <rect x="2" y="2" width="20" height="20" rx="3.75"/>
  <path d="M4.86874,12.16472l.00623.0462c.00757.03748.01758.07251.02624.1087l.00757.02625c.01123.03625.02375.07129.03748.10632l.00995.025c.01629.03741.02881.065.045.09619l.015.03c.015.02874.03253.05755.05.085l.0213.03375c.01746.02625.0362.05.05494.075l.02874.03748c.02.025.04126.04632.06257.07l.02746.03125,5.72,5.78a1.43016,1.43016,0,0,0,2.03253-2.01251L9.705,13.36088H17.7225a1.43,1.43,0,1,0,0-2.86H9.755l3.25007-3.215a1.43,1.43,0,0,0-2.0113-2.03253h-.0025l-5.72,5.66132c-.02624.02746-.04877.05371-.07251.07995l-.0238.02a1.42781,1.42781,0,0,0-.31745.75006v.015l-.01.055V11.931a1.40869,1.40869,0,0,0,.00751.14252A.55662.55662,0,0,0,4.86874,12.16472Z"/>
</svg>
