<svg xmlns="http://www.w3.org/2000/svg" viewBox="0 0 24 24">
  <path d="M14.904,5.84873a3.15606,3.15606,0,0,1,2.29133.99,6.01287,6.01287,0,0,0,1.89067-.764,3.1826,3.1826,0,0,1-1.248,1.70333,6.62236,6.62236,0,0,0,1.662-.428,7.30582,7.30582,0,0,1-1.44533,1.514q.00333.07065.004.14067a.99685.99685,0,0,1-.006.13334.55781.55781,0,0,0,.006.11733A8.88267,8.88267,0,0,1,4.5,16.8234a6.50794,6.50794,0,0,0,4.44733-1.322,3.0073,3.0073,0,0,1-2.85333-2.16,3.83325,3.83325,0,0,0,1.37267-.04134,3.14267,3.14267,0,0,1-2.47467-3.094,3.19053,3.19053,0,0,0,1.37533.38067,3.09934,3.09934,0,0,1-.908-4.17,8.7254,8.7254,0,0,0,6.36734,3.28933,3.142,3.142,0,0,1,3.076-3.85533Z"/>
</svg>
