<svg xmlns="http://www.w3.org/2000/svg" viewBox="0 0 84 84.00189">
  <path d="M42.24,84.00179A41.99172,41.99172,0,0,1,12.1426,12.53522q.11427-.11516.22944-.22943a42.4,42.4,0,0,1,59.736,0,3.805,3.805,0,0,1,.01892,5.381l-.01892.019a3.855,3.855,0,0,1-5.431,0,34.733,34.733,0,0,0-48.874,0,34.239,34.239,0,0,0-.18812,48.42088q.09366.09444.18812.18811a34.733,34.733,0,0,0,48.874,0A2.173,2.173,0,0,0,66.69,63.24171l-.01294-.01293a2.2,2.2,0,0,0-3.1,0,30.287,30.287,0,0,1-42.668,0,29.891,29.891,0,0,1-.16406-42.272q.08168-.08235.16406-.16406a30.288,30.288,0,0,1,42.668,0,9.782,9.782,0,0,1,.05426,13.83373l-.05426.05427a9.924,9.924,0,0,1-13.964,0,10.3945,10.3945,0,1,0,0,14.66h0a3.855,3.855,0,0,1,5.431,0,3.805,3.805,0,0,1,.01892,5.38105l-.01892.01895A18.054,18.054,0,1,1,54.974,29.20865l.07013.07011a2.188,2.188,0,0,0,3.1-3.086,22.578,22.578,0,0,0-31.807,0A22.282,22.282,0,0,0,26.21432,57.704q.06115.06161.12274.12274a22.577,22.577,0,0,0,31.807,0,9.911,9.911,0,0,1,13.964,0,9.781,9.781,0,0,1,.05566,13.8323l-.05566.0557a42.23208,42.23208,0,0,1-29.867,12.285"/>
</svg>
