<?xml version="1.0" encoding="UTF-8" standalone="no"?><!-- Generator: Gravit.io --><svg xmlns="http://www.w3.org/2000/svg" xmlns:xlink="http://www.w3.org/1999/xlink" style="isolation:isolate" viewBox="399.646 369.065 174.708 102.869" width="174.708pt" height="102.869pt"><defs><clipPath id="_clipPath_ykacE3azzc95nuYIhXnOxDybAkFW3sQo"><rect x="399.646" y="369.065" width="174.708" height="102.869"/></clipPath></defs><g clip-path="url(#_clipPath_ykacE3azzc95nuYIhXnOxDybAkFW3sQo)"><defs><linearGradient id="_lgradient_0" x1="1.039974935735442" y1="0.8998656399892621" x2="0.36806892718481576" y2="-0.2638806483727839"><stop offset="30%" style="stop-color:#FF0380"/><stop offset="100%" style="stop-color:#000000"/></linearGradient></defs><path d="M 506.831 372.422 L 506.855 372.408 C 518.215 365.849 532.762 369.747 539.321 381.107 L 571.17 436.271 C 577.728 447.631 573.83 462.178 562.47 468.736 L 562.447 468.75 C 551.087 475.309 536.54 471.411 529.981 460.051 L 498.132 404.887 C 491.574 393.528 495.472 378.98 506.831 372.422 Z" style="stroke:none;fill:url(#_lgradient_0);stroke-miterlimit:10;"/><path d="M 466.236 436.126 L 498.084 380.963 C 504.643 369.603 519.19 365.705 530.55 372.264 L 530.574 372.277 C 541.933 378.836 545.831 393.383 539.273 404.743 L 507.424 459.907 C 500.866 471.266 486.318 475.164 474.959 468.606 L 474.935 468.592 C 463.575 462.033 459.677 447.486 466.236 436.126 Z" style="stroke:none;fill:#FF0380;stroke-miterlimit:10;"/><path d="M 443.34 372.275 L 443.364 372.262 C 454.724 365.703 469.271 369.601 475.83 380.961 L 507.678 436.125 C 514.237 447.484 510.339 462.032 498.979 468.59 L 498.955 468.604 C 487.596 475.162 473.048 471.264 466.49 459.905 L 434.641 404.741 C 428.083 393.381 431.98 378.834 443.34 372.275 Z" style="stroke:none;fill:#FF0380;stroke-miterlimit:10;"/><path d="M 402.83 436.113 L 434.679 380.949 C 441.238 369.589 455.785 365.691 467.145 372.25 L 467.169 372.264 C 478.528 378.822 482.426 393.369 475.868 404.729 L 444.019 459.893 C 437.46 471.253 422.913 475.151 411.553 468.592 L 411.53 468.578 C 400.17 462.02 396.272 447.472 402.83 436.113 Z" style="stroke:none;fill:#FF0380;stroke-miterlimit:10;"/></g></svg>